<svg width="30" height="30" viewBox="0 0 30 30" fill="none" xmlns="http://www.w3.org/2000/svg">
<path d="M6.17188 10.4399L15.0019 15.5499L23.7719 10.4699" stroke="#AA205E" stroke-width="1.5" stroke-linecap="round" stroke-linejoin="round"/>
<path d="M15 24.61V15.54" stroke="#AA205E" stroke-width="1.5" stroke-linecap="round" stroke-linejoin="round"/>
<g filter="url(#filter0_d_2482_2829)">
<path d="M12.9306 5.48L7.59061 8.45003C6.38061 9.12003 5.39062 10.8 5.39062 12.18V17.83C5.39062 19.21 6.38061 20.89 7.59061 21.56L12.9306 24.53C14.0706 25.16 15.9406 25.16 17.0806 24.53L22.4206 21.56C23.6306 20.89 24.6206 19.21 24.6206 17.83V12.18C24.6206 10.8 23.6306 9.12003 22.4206 8.45003L17.0806 5.48C15.9306 4.84 14.0706 4.84 12.9306 5.48Z" stroke="#AA205E" stroke-width="1.5" stroke-linecap="round" stroke-linejoin="round" shape-rendering="crispEdges"/>
</g>
<path d="M20.0017 16.2401V12.5801L10.5117 7.1001" stroke="#AA205E" stroke-width="1.5" stroke-linecap="round" stroke-linejoin="round"/>
<defs>
<filter id="filter0_d_2482_2829" x="0.640625" y="0.25" width="28.7305" height="29.5024" filterUnits="userSpaceOnUse" color-interpolation-filters="sRGB">
<feFlood flood-opacity="0" result="BackgroundImageFix"/>
<feColorMatrix in="SourceAlpha" type="matrix" values="0 0 0 0 0 0 0 0 0 0 0 0 0 0 0 0 0 0 127 0" result="hardAlpha"/>
<feOffset/>
<feGaussianBlur stdDeviation="2"/>
<feComposite in2="hardAlpha" operator="out"/>
<feColorMatrix type="matrix" values="0 0 0 0 0.666667 0 0 0 0 0.12549 0 0 0 0 0.368627 0 0 0 1 0"/>
<feBlend mode="normal" in2="BackgroundImageFix" result="effect1_dropShadow_2482_2829"/>
<feBlend mode="normal" in="SourceGraphic" in2="effect1_dropShadow_2482_2829" result="shape"/>
</filter>
</defs>
</svg>
