<svg width="28" height="29" viewBox="0 0 28 29" fill="none" xmlns="http://www.w3.org/2000/svg">
<path d="M22.2305 11.5024H5.76953M22.2305 11.5024L20.9212 8.90014C20.3156 7.69592 19.0829 6.93604 17.7352 6.93604H10.2648C8.9168 6.93604 7.68414 7.69592 7.07848 8.90014L5.76953 11.5024M22.2305 11.5024L23.7068 12.4256C24.7956 13.1062 25.457 14.2994 25.457 15.5835V18.5459C25.457 18.8853 25.3961 19.2221 25.2768 19.5401L25.1989 19.7482C25.1057 19.9976 24.9342 20.2016 24.7188 20.3372C24.5294 20.4565 24.3101 20.5198 24.0863 20.5196L22.1312 20.5685C21.9885 20.5724 21.8485 20.5289 21.7328 20.4452L20.7266 19.7168L20.1734 19.3165L7.82633 19.2618L7.27344 19.6618L6.25953 20.3957C6.14842 20.4762 6.01474 20.5196 5.87754 20.5196H3.91344C3.6843 20.5196 3.46637 20.454 3.28125 20.3372C3.06087 20.1988 2.89207 19.9919 2.80082 19.7482L2.72289 19.5401C2.60394 19.2222 2.543 18.8854 2.54297 18.5459V15.5835C2.54297 14.2994 3.20414 13.1062 4.29297 12.4256L5.76953 11.5024" stroke="#222222" stroke-width="1.2" stroke-miterlimit="10"/>
<path d="M7.27516 19.6618V21.6196C7.27516 22.0161 6.95359 22.3376 6.55711 22.3376H4.00074C3.60426 22.3376 3.2827 22.0161 3.2827 21.6196V20.3372C3.47195 20.4565 3.69115 20.5197 3.91488 20.5196H5.87898M22.1329 20.5685L24.088 20.5196C24.3171 20.5196 24.5354 20.4539 24.7205 20.3372V21.6196C24.7205 22.0161 24.3989 22.3376 24.0024 22.3376H21.4461C21.0496 22.3376 20.728 22.0161 20.728 21.6196V19.7167M22.2322 11.431C21.5346 12.7515 20.6197 13.9568 19.5353 14.9835M5.77125 11.431C6.46879 12.7515 7.38371 13.9568 8.46816 14.9835M9.25402 17.0928H18.5627M20.6424 17.6397C20.6424 16.5867 21.4961 15.733 22.5491 15.733H23.499C23.6773 15.733 23.8217 15.8774 23.8217 16.0557V16.8971C23.8217 17.3072 23.4892 17.6397 23.079 17.6397H20.6424ZM22.1291 11.381C22.1291 10.4691 22.8682 9.72998 23.7801 9.72998H24.6026C24.7568 9.72998 24.8821 9.85494 24.8821 10.0094V10.7379C24.8821 11.0931 24.5941 11.381 24.2389 11.381H22.1291ZM5.87434 11.431C5.87434 10.5191 5.13523 9.78002 4.22332 9.78002H3.40055C3.24633 9.78002 3.12109 9.90498 3.12109 10.0595V10.7879C3.12109 11.1431 3.40902 11.431 3.76422 11.431H5.87434ZM7.36074 17.6397C7.36074 16.5867 6.50707 15.733 5.45406 15.733H4.50414C4.32586 15.733 4.18148 15.8774 4.18148 16.0557V16.8971C4.18148 17.3072 4.51398 17.6397 4.92414 17.6397H7.36074Z" stroke="#222222" stroke-width="0.8" stroke-miterlimit="10"/>
</svg>
