<svg width="41" height="22" viewBox="0 0 41 22" fill="none" xmlns="http://www.w3.org/2000/svg">
<path d="M4.22409 16.6502H6.94417C7.86915 18.2914 9.92683 18.8589 11.5399 17.9176C12.0584 17.6151 12.4883 17.1775 12.7858 16.6502H28.3791C29.3036 18.2912 31.3608 18.8589 32.9737 17.9183C33.4975 17.6128 33.9308 17.1696 34.2285 16.6352C34.2925 16.6238 34.3543 16.6011 34.4107 16.568L37.2311 14.8461C37.4007 14.7425 37.5047 14.5559 37.5047 14.3543V9.18905C37.5033 9.12132 37.4898 9.05453 37.4652 8.99148C37.459 8.97443 37.4522 8.95832 37.4443 8.94174C37.4365 8.92516 37.4331 8.90904 37.4239 8.8934L35.8914 6.29418L36.3174 5.42824C36.4565 5.1445 36.3433 4.79981 36.0647 4.65829C36.0144 4.63283 35.9609 4.61508 35.9056 4.60574L33.0045 4.11322L31.6275 3.88015C24.8738 2.75383 17.9431 3.90911 11.8957 7.16946L10.2328 8.0723L7.69448 8.64609C5.96893 9.03282 4.50801 10.1932 3.72098 11.8027C3.6815 11.8821 3.66062 11.9697 3.66016 12.0587V16.0762C3.66016 16.3931 3.91263 16.6502 4.22409 16.6502ZM11.9306 15.8466C11.4297 17.0044 10.1013 17.5301 8.96329 17.0206C7.82531 16.511 7.30866 15.1593 7.80947 14.0015C8.31029 12.8436 9.63877 12.3179 10.7767 12.8275C11.5952 13.1939 12.1229 14.0185 12.1213 14.9283C12.1204 15.2445 12.0552 15.5572 11.9301 15.8466H11.9306ZM33.3655 15.8466C32.8647 17.0044 31.5362 17.5301 30.3982 17.0206C29.2602 16.511 28.7436 15.1593 29.2444 14.0015C29.7452 12.8436 31.0737 12.3179 32.2117 12.8275C33.0302 13.1939 33.5578 14.0185 33.5562 14.9283C33.5553 15.2445 33.4901 15.5572 33.365 15.8466H33.3655ZM36.3766 10.9109H34.9664L34.1202 9.76284H36.3766V10.9109ZM25.0127 4.65502C27.1626 4.53778 29.3188 4.65829 31.443 5.01489L31.7393 5.06533L28.8099 8.04124H24.5364L25.0127 4.65502ZM29.0436 9.18905C29.1932 9.18905 29.3367 9.12856 29.4423 9.02091L33.1048 5.29373L34.9664 5.60993L34.7406 6.06275C34.6545 6.23837 34.6625 6.44668 34.7621 6.61482L35.9444 8.61503H32.9921C32.6804 8.61503 32.4279 8.87215 32.4279 9.18905C32.4279 9.31329 32.4676 9.43402 32.5408 9.53328L34.2331 11.8291C34.3396 11.9737 34.5067 12.0587 34.6843 12.0587H36.3766V14.0295L34.6843 15.0643C34.6843 15.019 34.6871 14.9736 34.6871 14.9283C34.6871 13.0265 33.1718 11.4847 31.3028 11.4847C29.4335 11.4847 27.9182 13.0265 27.9182 14.9283C27.9194 15.1002 27.9338 15.2719 27.9611 15.4414C27.9639 15.4615 27.9611 15.4823 27.9657 15.5024H23.4891L24.3753 9.18905H29.0436ZM23.8614 4.73535L23.3971 8.04124H12.6882C16.166 6.21058 19.9611 5.08775 23.8614 4.73535ZM4.78826 13.2065H5.91637V12.0587H4.87112C5.531 10.8896 6.64396 10.0576 7.93755 9.76634L10.491 9.18905H23.2334L22.3495 15.5021H13.2019C13.2019 15.482 13.2019 15.4615 13.2065 15.4414C13.2336 15.2716 13.2478 15.1002 13.2494 14.9281C13.2494 13.0265 11.7341 11.4847 9.86485 11.4847C7.99585 11.4847 6.48054 13.0265 6.48054 14.9281C6.48168 15.1002 6.49614 15.2716 6.52346 15.4414C6.52621 15.4615 6.52346 15.482 6.52782 15.5021H4.78826V13.2065Z" fill="#222222"/>
<path d="M18.3242 10.3374H20.5807V11.4852H18.3242V10.3374Z" fill="#222222"/>
</svg>
