<svg width="126" height="186" viewBox="0 0 126 186" fill="none" xmlns="http://www.w3.org/2000/svg">
<path d="M121 83.5L121.679 83.8172L121 83.5ZM42.9998 130.5L43.0765 129.754L43.0383 129.75H42.9998V130.5ZM32.9997 83.5L32.9927 82.7499L32.9787 82.7503L32.9997 83.5ZM84.9999 139.5L85.5396 140.021L84.9999 139.5ZM36.2575 183.394C36.199 183.804 36.4839 184.184 36.8939 184.242L43.5761 185.197C43.9861 185.256 44.366 184.971 44.4246 184.561C44.4832 184.151 44.1983 183.771 43.7882 183.712L37.8485 182.864L38.6971 176.924C38.7556 176.514 38.4707 176.134 38.0607 176.075C37.6506 176.017 37.2707 176.302 37.2121 176.712L36.2575 183.394ZM37.45 184.1C37.6992 183.913 37.9159 183.839 38.509 183.567C39.0699 183.311 39.828 182.931 40.9774 182.179L40.1564 180.924C39.0745 181.632 38.383 181.976 37.8853 182.203C37.4197 182.416 36.9686 182.586 36.55 182.9L37.45 184.1ZM47.4978 177.138C49.2033 175.688 51.2238 173.902 53.6275 171.692L52.6123 170.587C50.22 172.787 48.2143 174.56 46.5263 175.995L47.4978 177.138ZM59.5931 166.082C61.384 164.365 63.3292 162.475 65.443 160.394L64.3906 159.325C62.2811 161.402 60.3408 163.287 58.5551 164.999L59.5931 166.082ZM71.2422 154.625C73.0496 152.811 74.9586 150.88 76.9754 148.825L75.9048 147.774C73.8905 149.827 71.9841 151.755 70.1795 153.567L71.2422 154.625ZM82.6735 142.984C83.6086 142.02 84.5638 141.032 85.5396 140.021L84.4602 138.979C83.4852 139.99 82.5309 140.976 81.5968 141.939L82.6735 142.984ZM85.5396 140.021C86.5172 139.008 87.4441 138.011 88.3218 137.031L87.2042 136.03C86.3396 136.996 85.4255 137.979 84.4602 138.979L85.5396 140.021ZM93.4168 130.788C95.1614 128.408 96.5907 126.132 97.7266 123.956L96.3968 123.262C95.3009 125.361 93.9135 127.573 92.207 129.901L93.4168 130.788ZM100.642 116.307C101.316 113.35 101.369 110.61 100.875 108.08L99.4027 108.367C99.8529 110.672 99.812 113.199 99.1791 115.974L100.642 116.307ZM97.4226 100.574C95.8266 98.4946 93.7839 96.6452 91.404 95.0031L90.5521 96.2377C92.8314 97.8103 94.7507 99.5564 96.2326 101.487L97.4226 100.574ZM84.2913 91.0794C81.919 90.0223 79.3739 89.0849 76.7083 88.2568L76.2633 89.6893C78.8819 90.5028 81.3706 91.4201 83.6808 92.4496L84.2913 91.0794ZM68.9192 86.2038C66.3329 85.6297 63.6839 85.1371 61.0102 84.7187L60.7783 86.2006C63.4241 86.6147 66.0418 87.1016 68.5941 87.6682L68.9192 86.2038ZM53.0358 83.6876C50.3416 83.4081 47.6587 83.1961 45.0254 83.0445L44.9391 84.542C47.5509 84.6924 50.2109 84.9026 52.8811 85.1796L53.0358 83.6876ZM37.0007 82.7589C35.6361 82.7404 34.2981 82.7378 32.9927 82.75L33.0067 84.25C34.3006 84.2379 35.6272 84.2404 36.9804 84.2587L37.0007 82.7589ZM32.9787 82.7503C31.5624 82.7899 30.1971 82.8562 28.8819 82.948L28.9863 84.4443C30.2797 84.3541 31.6241 84.2888 33.0207 84.2497L32.9787 82.7503ZM20.7894 83.9322C17.8183 84.4721 15.1928 85.1787 12.8938 86.0285L13.4138 87.4355C15.6192 86.6203 18.1589 85.9348 21.0576 85.408L20.7894 83.9322ZM5.62812 89.9471C3.15235 91.8981 1.50248 94.1627 0.6123 96.6234L2.02283 97.1337C2.80721 94.9655 4.27488 92.9233 6.55657 91.1252L5.62812 89.9471ZM0.281483 104.99C0.893458 107.524 2.09319 110.068 3.77227 112.515L5.00918 111.667C3.41322 109.34 2.30101 106.963 1.73957 104.638L0.281483 104.99ZM9.22737 118.668C11.1728 120.424 13.3734 122.071 15.7843 123.559L16.5719 122.282C14.2345 120.84 12.1073 119.247 10.2325 117.554L9.22737 118.668ZM23.0691 127.272C25.533 128.29 28.1329 129.144 30.8378 129.796L31.1894 128.338C28.5613 127.704 26.0353 126.875 23.6419 125.886L23.0691 127.272ZM38.9104 131.086C40.258 131.194 41.6222 131.25 42.9998 131.25V129.75C41.6627 129.75 40.3384 129.696 39.03 129.591L38.9104 131.086ZM42.9231 131.246C44.1796 131.375 45.544 131.462 47.0015 131.497L47.038 129.998C45.6167 129.963 44.2914 129.879 43.0765 129.754L42.9231 131.246ZM55.1646 131.194C57.7145 130.954 60.4157 130.572 63.2219 130.019L62.9321 128.548C60.1761 129.09 57.5248 129.465 55.0243 129.7L55.1646 131.194ZM71.1299 128.06C73.6549 127.303 76.2262 126.403 78.815 125.343L78.2465 123.955C75.7046 124.996 73.1794 125.879 70.6992 126.623L71.1299 128.06ZM86.1866 121.887C88.5333 120.64 90.872 119.248 93.1813 117.698L92.3455 116.452C90.0801 117.973 87.7856 119.338 85.4826 120.562L86.1866 121.887ZM99.7005 112.813C101.741 111.111 103.741 109.267 105.682 107.272L104.606 106.226C102.702 108.183 100.741 109.992 98.7398 111.661L99.7005 112.813ZM111.06 101.142C112.702 99.0674 114.284 96.8611 115.793 94.5163L114.532 93.7045C113.049 96.0082 111.496 98.1748 109.884 100.211L111.06 101.142ZM119.878 87.4709C120.496 86.2832 121.097 85.0655 121.679 83.8172L120.32 83.1828C119.747 84.4116 119.155 85.6099 118.547 86.7782L119.878 87.4709ZM121.679 83.8172C122.3 82.4872 122.848 81.1674 123.326 79.8582L121.917 79.3436C121.454 80.611 120.923 81.8908 120.32 83.1828L121.679 83.8172ZM125.474 71.5382C125.915 68.6084 126.011 65.7431 125.802 62.9468L124.306 63.059C124.507 65.7437 124.415 68.4965 123.99 71.315L125.474 71.5382ZM124.212 54.5057C123.386 51.7816 122.279 49.1394 120.934 46.5832L119.607 47.2816C120.911 49.7611 121.981 52.3153 122.776 54.9407L124.212 54.5057ZM116.364 39.3552C114.694 37.1001 112.848 34.9236 110.863 32.8288L109.774 33.8605C111.722 35.9161 113.528 38.0464 115.159 40.248L116.364 39.3552ZM104.703 26.9458C102.578 25.0967 100.356 23.3235 98.0675 21.629L97.1748 22.8345C99.4342 24.5077 101.625 26.2564 103.719 28.0775L104.703 26.9458ZM91.0715 16.8068C88.6726 15.2649 86.2371 13.8043 83.796 12.4276L83.0592 13.7341C85.4768 15.0976 87.8875 16.5434 90.2605 18.0687L91.0715 16.8068ZM76.2961 8.45752C73.6906 7.16407 71.1144 5.97076 68.6059 4.88104L68.0083 6.25682C70.494 7.33669 73.0471 8.51928 75.6291 9.80107L76.2961 8.45752ZM60.7242 1.70241C59.3555 1.19379 58.0246 0.722502 56.7394 0.28929L56.2603 1.71071C57.5305 2.13888 58.8469 2.60503 60.2016 3.10846L60.7242 1.70241Z" fill="#700B97"/>
</svg>
