<svg width="18" height="18" viewBox="0 0 18 18" fill="none" xmlns="http://www.w3.org/2000/svg">
<path d="M10.3287 4.32793L13.2526 4.32793H16.1765M13.2526 1.4808L13.3406 7.32792M1.32862 4.32793C1.32862 3.39608 1.32862 2.93011 1.48086 2.56257C1.68385 2.07251 2.07322 1.68314 2.56327 1.48015C2.93081 1.32791 3.39677 1.32791 4.32864 1.32791C5.26052 1.32791 5.72574 1.32856 6.09328 1.4808C6.58334 1.68379 6.97273 2.07318 7.17572 2.56323C7.32796 2.93078 7.32865 3.39603 7.32864 4.32792C7.32865 5.2598 7.32865 5.72574 7.1764 6.09328C6.97342 6.58334 6.58403 6.97273 6.09397 7.17572C5.72653 7.32792 5.25999 7.32792 4.32864 7.32792C3.39676 7.32792 2.93081 7.32792 2.56327 7.17568C2.07322 6.97269 1.68383 6.5833 1.48084 6.09324C1.32862 5.72575 1.32862 5.25959 1.32862 4.32793ZM1.32827 13.328C1.32827 12.3961 1.32827 11.9302 1.48051 11.5626C1.6835 11.0726 2.07287 10.6832 2.56293 10.4802C2.93047 10.328 3.39641 10.328 4.32829 10.328C5.26018 10.328 5.72539 10.3286 6.09294 10.4809C6.58299 10.6839 6.97238 11.0733 7.17537 11.5633C7.32761 11.9309 7.3283 12.3961 7.3283 13.328C7.3283 14.2599 7.3283 14.7258 7.17606 15.0934C6.97307 15.5834 6.58368 15.9728 6.09363 16.1758C5.72619 16.328 5.25964 16.328 4.32829 16.328C3.39642 16.328 2.93047 16.328 2.56293 16.1758C2.07287 15.9728 1.68348 15.5834 1.48049 15.0933C1.32827 14.7258 1.32827 14.2596 1.32827 13.328ZM10.3287 13.328C10.3287 12.3961 10.3287 11.9302 10.4809 11.5626C10.6839 11.0726 11.0733 10.6832 11.5633 10.4802C11.9309 10.328 12.3968 10.328 13.3287 10.328C14.2606 10.328 14.7258 10.3286 15.0934 10.4809C15.5834 10.6839 15.9728 11.0733 16.1758 11.5633C16.328 11.9309 16.3287 12.3961 16.3287 13.328C16.3287 14.2599 16.3287 14.7258 16.1765 15.0934C15.9735 15.5834 15.5841 15.9728 15.094 16.1758C14.7266 16.328 14.2601 16.328 13.3287 16.328C12.3968 16.328 11.9309 16.328 11.5633 16.1758C11.0733 15.9728 10.6839 15.5834 10.4809 15.0933C10.3287 14.7258 10.3287 14.2596 10.3287 13.328Z" stroke="#222222" stroke-width="1.5" stroke-linecap="round" stroke-linejoin="round"/>
</svg>
