<svg width="21" height="22" viewBox="0 0 21 22" fill="none" xmlns="http://www.w3.org/2000/svg">
<path d="M3.56107 19.8302L4.00191 19.2235L3.56107 19.8302ZM2.45491 18.7241L3.06168 18.2832L2.45491 18.7241ZM18.5451 18.7241L17.9383 18.2832L18.5451 18.7241ZM17.4389 19.8302L17.8798 20.437L17.4389 19.8302ZM17.4389 3.74007L17.8798 3.13331L17.4389 3.74007ZM18.5451 4.84623L17.9383 5.28707L18.5451 4.84623ZM3.56107 3.74007L4.00191 4.34683H4.00191L3.56107 3.74007ZM2.45491 4.84623L3.06168 5.28707L2.45491 4.84623ZM17.7178 14.8467L17.6005 14.1059H17.6005L17.7178 14.8467ZM13.5616 19.003L12.8208 18.8857V18.8857L13.5616 19.003ZM7.5 12.0352C7.08579 12.0352 6.75 12.3709 6.75 12.7852C6.75 13.1994 7.08579 13.5352 7.5 13.5352V12.0352ZM13.5 13.5352C13.9142 13.5352 14.25 13.1994 14.25 12.7852C14.25 12.3709 13.9142 12.0352 13.5 12.0352V13.5352ZM12.75 3.78516C12.75 4.19937 13.0858 4.53516 13.5 4.53516C13.9142 4.53516 14.25 4.19937 14.25 3.78516H12.75ZM14.25 0.785156C14.25 0.370943 13.9142 0.0351562 13.5 0.0351562C13.0858 0.0351562 12.75 0.370943 12.75 0.785156H14.25ZM6.75 3.78516C6.75 4.19937 7.08579 4.53516 7.5 4.53516C7.91421 4.53516 8.25 4.19937 8.25 3.78516H6.75ZM8.25 0.785156C8.25 0.370943 7.91421 0.0351562 7.5 0.0351562C7.08579 0.0351562 6.75 0.370943 6.75 0.785156H8.25ZM19.4711 14.7852L20.2206 14.8108L19.4711 14.7852ZM1.52893 8.78516L0.779368 8.75948L1.52893 8.78516ZM19.4711 8.78516L20.2206 8.75948L19.4711 8.78516ZM10.5 20.0352C8.60843 20.0352 7.24999 20.0341 6.19804 19.9202C5.16013 19.8077 4.50992 19.5926 4.00191 19.2235L3.12023 20.437C3.92656 21.0228 4.87094 21.2852 6.03648 21.4114C7.18798 21.5362 8.64184 21.5352 10.5 21.5352V20.0352ZM0.75 11.7852C0.75 13.6433 0.748971 15.0972 0.873728 16.2487C1.00001 17.4142 1.26232 18.3586 1.84815 19.1649L3.06168 18.2832C2.69259 17.7752 2.47745 17.125 2.365 16.0871C2.25103 15.0352 2.25 13.6767 2.25 11.7852H0.75ZM4.00191 19.2235C3.64111 18.9613 3.32382 18.644 3.06168 18.2832L1.84815 19.1649C2.20281 19.6531 2.63209 20.0823 3.12023 20.437L4.00191 19.2235ZM17.9383 18.2832C17.6762 18.644 17.3589 18.9613 16.9981 19.2235L17.8798 20.437C18.3679 20.0823 18.7972 19.6531 19.1518 19.1649L17.9383 18.2832ZM16.9981 4.34683C17.3589 4.60897 17.6762 4.92627 17.9383 5.28707L19.1518 4.40539C18.7972 3.91725 18.3679 3.48797 17.8798 3.13331L16.9981 4.34683ZM3.12023 3.13331C2.63209 3.48797 2.20281 3.91725 1.84815 4.40539L3.06168 5.28707C3.32382 4.92627 3.64111 4.60897 4.00191 4.34683L3.12023 3.13331ZM17.6005 14.1059C15.1401 14.4956 13.2105 16.4253 12.8208 18.8857L14.3023 19.1203C14.5904 17.3018 16.0166 15.8755 17.8352 15.5875L17.6005 14.1059ZM7.5 13.5352H13.5V12.0352H7.5V13.5352ZM19.4711 14.0352C18.5888 14.0352 18.0579 14.0335 17.6005 14.1059L17.8352 15.5875C18.147 15.5381 18.5338 15.5352 19.4711 15.5352L19.4711 14.0352ZM18.75 11.7852C18.75 12.9582 18.7499 13.9307 18.7215 14.7595L20.2206 14.8108C20.2501 13.9509 20.25 12.9499 20.25 11.7852H18.75ZM18.7215 14.7595C18.658 16.6144 18.4509 17.5777 17.9383 18.2832L19.1518 19.1649C19.9537 18.0613 20.1564 16.6843 20.2206 14.8108L18.7215 14.7595ZM14.25 20.7562C14.25 19.819 14.2529 19.4322 14.3023 19.1203L12.8208 18.8857C12.7484 19.343 12.75 19.8739 12.75 20.7562L14.25 20.7562ZM10.5 21.5352C11.6648 21.5352 12.6658 21.5352 13.5257 21.5058L13.4743 20.0067C12.6456 20.0351 11.6731 20.0352 10.5 20.0352V21.5352ZM13.5257 21.5058C15.3991 21.4416 16.7761 21.2389 17.8798 20.437L16.9981 19.2235C16.2925 19.7361 15.3292 19.9431 13.4743 20.0067L13.5257 21.5058ZM2.25 11.7852C2.25 10.6121 2.25009 9.6396 2.27849 8.81084L0.779368 8.75948C0.749906 9.6194 0.75 10.6204 0.75 11.7852H2.25ZM2.27849 8.81084C2.34204 6.95591 2.54907 5.99262 3.06168 5.28707L1.84815 4.40539C1.0463 5.50905 0.843555 6.88603 0.779368 8.75948L2.27849 8.81084ZM1.52893 9.53516H19.4711V8.03516H1.52893V9.53516ZM20.25 11.7852C20.25 10.6204 20.2501 9.6194 20.2206 8.75948L18.7215 8.81084C18.7499 9.6396 18.75 10.6121 18.75 11.7852H20.25ZM20.2206 8.75948C20.1564 6.88603 19.9537 5.50905 19.1518 4.40539L17.9383 5.28707C18.4509 5.99262 18.658 6.95591 18.7215 8.81084L20.2206 8.75948ZM14.25 3.78516V2.81408H12.75V3.78516H14.25ZM14.25 2.81408V0.785156H12.75V2.81408H14.25ZM10.5 3.53516C11.6731 3.53516 12.6456 3.53525 13.4743 3.56364L13.5257 2.06452C12.6658 2.03506 11.6648 2.03516 10.5 2.03516V3.53516ZM13.4743 3.56364C15.3292 3.6272 16.2925 3.83422 16.9981 4.34683L17.8798 3.13331C16.7761 2.33145 15.3991 2.12871 13.5257 2.06452L13.4743 3.56364ZM8.25 3.78516V2.81408H6.75V3.78516H8.25ZM8.25 2.81408V0.785156H6.75V2.81408H8.25ZM10.5 2.03516C9.33522 2.03516 8.33424 2.03506 7.47432 2.06452L7.52568 3.56364C8.35445 3.53525 9.32692 3.53516 10.5 3.53516V2.03516ZM7.47432 2.06452C5.60087 2.12871 4.2239 2.33145 3.12023 3.13331L4.00191 4.34683C4.70746 3.83422 5.67075 3.6272 7.52568 3.56364L7.47432 2.06452Z" fill="#9C9C9C"/>
</svg>
