<svg width="41" height="40" viewBox="0 0 41 40" fill="none" xmlns="http://www.w3.org/2000/svg">
<path fill-rule="evenodd" clip-rule="evenodd" d="M17.0723 5.41699H23.927C26.99 5.41697 29.416 5.41695 31.3147 5.67222C33.2687 5.93493 34.8503 6.48846 36.0976 7.73573C37.3449 8.983 37.8984 10.5646 38.1611 12.5186C38.3119 13.6401 38.3736 14.9455 38.3989 16.4575C38.4104 16.5256 38.4163 16.5956 38.4163 16.667C38.4163 16.7257 38.4123 16.7836 38.4044 16.8402C38.4164 17.783 38.4164 18.8034 38.4163 19.9063V20.0943C38.4164 23.1573 38.4164 25.5833 38.1611 27.482C37.8984 29.4361 37.3449 31.0176 36.0976 32.2649C34.8503 33.5122 33.2687 34.0657 31.3147 34.3284C29.416 34.5837 26.99 34.5837 23.927 34.5837H17.0723C14.0094 34.5837 11.5833 34.5837 9.68464 34.3284C7.7306 34.0657 6.14902 33.5122 4.90175 32.2649C3.65448 31.0176 3.10095 29.4361 2.83823 27.482C2.58296 25.5833 2.58298 23.1573 2.58301 20.0944V19.9063C2.583 18.8034 2.58299 17.783 2.5949 16.8401C2.58706 16.7835 2.58301 16.7257 2.58301 16.667C2.58301 16.5956 2.58899 16.5256 2.60049 16.4575C2.62574 14.9455 2.68746 13.6401 2.83823 12.5186C3.10095 10.5646 3.65448 8.983 4.90175 7.73573C6.14902 6.48846 7.7306 5.93493 9.68464 5.67222C11.5833 5.41695 14.0094 5.41697 17.0723 5.41699ZM5.08632 17.917C5.08315 18.5643 5.08301 19.2572 5.08301 20.0003C5.08301 23.1784 5.08566 25.4361 5.31594 27.1489C5.54138 28.8257 5.96416 29.7918 6.66951 30.4972C7.37486 31.2025 8.34094 31.6253 10.0178 31.8507C11.7305 32.081 13.9883 32.0837 17.1663 32.0837H23.833C27.011 32.0837 29.2688 32.081 30.9816 31.8507C32.6584 31.6253 33.6245 31.2025 34.3298 30.4972C35.0352 29.7918 35.458 28.8257 35.6834 27.1489C35.9137 25.4361 35.9163 23.1784 35.9163 20.0003C35.9163 19.2572 35.9162 18.5643 35.913 17.917H5.08632ZM35.8729 15.417H5.12647C5.15907 14.4391 5.21612 13.5942 5.31594 12.8517C5.54138 11.1749 5.96416 10.2088 6.66951 9.5035C7.37486 8.79815 8.34094 8.37537 10.0178 8.14992C11.7305 7.91965 13.9883 7.91699 17.1663 7.91699H23.833C27.011 7.91699 29.2688 7.91965 30.9816 8.14992C32.6584 8.37537 33.6245 8.79815 34.3298 9.5035C35.0352 10.2088 35.458 11.1749 35.6834 12.8517C35.7832 13.5942 35.8403 14.4391 35.8729 15.417ZM27.0918 20.417H27.2409C27.9623 20.4169 28.6237 20.4168 29.1617 20.4892C29.7542 20.5688 30.3804 20.7562 30.8954 21.2713C31.4104 21.7863 31.5979 22.4125 31.6775 23.005C31.7498 23.543 31.7498 24.2044 31.7497 24.9258V25.0749C31.7498 25.7963 31.7498 26.4577 31.6775 26.9957C31.5979 27.5881 31.4104 28.2143 30.8954 28.7294C30.3804 29.2444 29.7542 29.4318 29.1617 29.5115C28.6237 29.5838 27.9623 29.5837 27.2409 29.5837H27.0918C26.3704 29.5837 25.709 29.5838 25.171 29.5115C24.5785 29.4318 23.9523 29.2444 23.4373 28.7294C22.9222 28.2143 22.7348 27.5881 22.6552 26.9957C22.5828 26.4577 22.5829 25.7963 22.583 25.0749V24.9258C22.5829 24.2044 22.5828 23.543 22.6552 23.005C22.7348 22.4125 22.9222 21.7863 23.4373 21.2713C23.9523 20.7562 24.5785 20.5688 25.171 20.4892C25.709 20.4168 26.3704 20.4169 27.0918 20.417ZM25.2091 23.0368L25.2051 23.0391L25.2028 23.0431C25.2011 23.0463 25.1984 23.0519 25.1949 23.0603C25.18 23.0966 25.1545 23.1772 25.1329 23.3381C25.0857 23.6893 25.083 24.1793 25.083 25.0003C25.083 25.8213 25.0857 26.3113 25.1329 26.6626C25.1545 26.8235 25.18 26.9041 25.1949 26.9404C25.1963 26.9438 25.1976 26.9468 25.1988 26.9493C25.2004 26.9529 25.2018 26.9556 25.2028 26.9575L25.2051 26.9616L25.2091 26.9639C25.2123 26.9656 25.2179 26.9683 25.2263 26.9717C25.2626 26.9867 25.3432 27.0121 25.5041 27.0338C25.8553 27.081 26.3453 27.0837 27.1663 27.0837C27.9874 27.0837 28.4774 27.081 28.8286 27.0338C28.9895 27.0121 29.0701 26.9867 29.1064 26.9717C29.1148 26.9683 29.1203 26.9656 29.1236 26.9639L29.1276 26.9616L29.1299 26.9575C29.1316 26.9543 29.1343 26.9488 29.1377 26.9404C29.1527 26.9041 29.1782 26.8235 29.1998 26.6626C29.247 26.3113 29.2497 25.8213 29.2497 25.0003C29.2497 24.1793 29.247 23.6893 29.1998 23.3381C29.1782 23.1772 29.1527 23.0966 29.1377 23.0603C29.1357 23.0554 29.134 23.0514 29.1325 23.0484C29.1315 23.0462 29.1306 23.0445 29.1299 23.0431L29.1276 23.0391L29.1236 23.0368C29.1203 23.0351 29.1148 23.0324 29.1064 23.0289C29.0701 23.014 28.9895 22.9885 28.8286 22.9669C28.4774 22.9196 27.9874 22.917 27.1663 22.917C26.3453 22.917 25.8553 22.9196 25.5041 22.9669C25.3432 22.9885 25.2626 23.014 25.2263 23.0289C25.2179 23.0324 25.2123 23.0351 25.2091 23.0368ZM9.24968 22.5003C9.24968 21.81 9.80932 21.2503 10.4997 21.2503H13.833C14.5234 21.2503 15.083 21.81 15.083 22.5003C15.083 23.1907 14.5234 23.7503 13.833 23.7503H10.4997C9.80932 23.7503 9.24968 23.1907 9.24968 22.5003ZM25.2051 26.9616C25.2044 26.9609 25.2046 26.961 25.2051 26.9616C25.2056 26.9621 25.2058 26.9624 25.2051 26.9616ZM29.1276 26.9616C29.1273 26.962 29.1276 26.9617 29.1276 26.9616V26.9616ZM9.24968 27.5003C9.24968 26.81 9.80932 26.2503 10.4997 26.2503H17.1663C17.8567 26.2503 18.4163 26.81 18.4163 27.5003C18.4163 28.1907 17.8567 28.7503 17.1663 28.7503H10.4997C9.80932 28.7503 9.24968 28.1907 9.24968 27.5003Z" fill="#700B97"/>
</svg>
