<svg width="17" height="17" viewBox="0 0 17 17" fill="none" xmlns="http://www.w3.org/2000/svg">
<path fill-rule="evenodd" clip-rule="evenodd" d="M8.49967 6.00033C7.11896 6.00033 5.99967 7.11961 5.99967 8.50033C5.99967 9.88104 7.11896 11.0003 8.49967 11.0003C9.88039 11.0003 10.9997 9.88104 10.9997 8.50033C10.9997 7.11961 9.88039 6.00033 8.49967 6.00033ZM6.99967 8.50033C6.99967 7.6719 7.67125 7.00033 8.49967 7.00033C9.3281 7.00033 9.99967 7.6719 9.99967 8.50033C9.99967 9.32875 9.3281 10.0003 8.49967 10.0003C7.67125 10.0003 6.99967 9.32875 6.99967 8.50033Z" fill="#700B97"/>
<path fill-rule="evenodd" clip-rule="evenodd" d="M8.49967 2.66699C5.49025 2.66699 3.4632 4.46979 2.28672 5.99823L2.2655 6.02579C1.99943 6.37135 1.75438 6.68961 1.58813 7.06592C1.4101 7.46891 1.33301 7.90812 1.33301 8.50033C1.33301 9.09253 1.4101 9.53174 1.58813 9.93473C1.75438 10.311 1.99944 10.6293 2.26551 10.9749L2.28672 11.0024C3.4632 12.5309 5.49025 14.3337 8.49967 14.3337C11.5091 14.3337 13.5361 12.5309 14.7126 11.0024L14.7338 10.9749C14.9999 10.6293 15.245 10.3111 15.4112 9.93473C15.5892 9.53174 15.6663 9.09253 15.6663 8.50033C15.6663 7.90812 15.5892 7.46891 15.4112 7.06592C15.245 6.6896 14.9999 6.37134 14.7338 6.02578L14.7126 5.99823C13.5361 4.46979 11.5091 2.66699 8.49967 2.66699ZM3.07915 6.60819C4.16543 5.19694 5.93325 3.66699 8.49967 3.66699C11.0661 3.66699 12.8339 5.19694 13.9202 6.60819C14.2126 6.98805 14.3839 7.21503 14.4965 7.47002C14.6018 7.70834 14.6663 7.99962 14.6663 8.50033C14.6663 9.00104 14.6018 9.29231 14.4965 9.53063C14.3839 9.78562 14.2126 10.0126 13.9202 10.3925C12.8339 11.8037 11.0661 13.3337 8.49967 13.3337C5.93325 13.3337 4.16543 11.8037 3.07915 10.3925C2.78676 10.0126 2.6155 9.78562 2.50285 9.53063C2.39757 9.29231 2.33301 9.00104 2.33301 8.50033C2.33301 7.99962 2.39757 7.70834 2.50285 7.47002C2.6155 7.21503 2.78676 6.98805 3.07915 6.60819Z" fill="#700B97"/>
</svg>
