<svg width="15" height="13" viewBox="0 0 15 13" fill="none" xmlns="http://www.w3.org/2000/svg">
<path fill-rule="evenodd" clip-rule="evenodd" d="M7.49967 4.00033C6.11896 4.00033 4.99967 5.11961 4.99967 6.50033C4.99967 7.88104 6.11896 9.00033 7.49967 9.00033C8.88039 9.00033 9.99967 7.88104 9.99967 6.50033C9.99967 5.11961 8.88039 4.00033 7.49967 4.00033ZM5.99967 6.50033C5.99967 5.6719 6.67125 5.00033 7.49967 5.00033C8.3281 5.00033 8.99967 5.6719 8.99967 6.50033C8.99967 7.32875 8.3281 8.00033 7.49967 8.00033C6.67125 8.00033 5.99967 7.32875 5.99967 6.50033Z" fill="#700B97"/>
<path fill-rule="evenodd" clip-rule="evenodd" d="M7.49967 0.666992C4.49025 0.666992 2.4632 2.46979 1.28672 3.99823L1.2655 4.02579C0.999433 4.37135 0.754381 4.68961 0.588133 5.06592C0.410104 5.46891 0.333008 5.90812 0.333008 6.50033C0.333008 7.09253 0.410104 7.53174 0.588133 7.93473C0.754382 8.31105 0.999435 8.62931 1.26551 8.97486L1.28672 9.00242C2.4632 10.5309 4.49025 12.3337 7.49967 12.3337C10.5091 12.3337 12.5361 10.5309 13.7126 9.00242L13.7338 8.97488C13.9999 8.62931 14.245 8.31105 14.4112 7.93473C14.5892 7.53174 14.6663 7.09253 14.6663 6.50033C14.6663 5.90812 14.5892 5.46891 14.4112 5.06592C14.245 4.6896 13.9999 4.37134 13.7338 4.02578L13.7126 3.99823C12.5361 2.46979 10.5091 0.666992 7.49967 0.666992ZM2.07915 4.60819C3.16543 3.19694 4.93325 1.66699 7.49967 1.66699C10.0661 1.66699 11.8339 3.19694 12.9202 4.60819C13.2126 4.98805 13.3839 5.21503 13.4965 5.47002C13.6018 5.70834 13.6663 5.99962 13.6663 6.50033C13.6663 7.00104 13.6018 7.29232 13.4965 7.53063C13.3839 7.78562 13.2126 8.0126 12.9202 8.39246C11.8339 9.80371 10.0661 11.3337 7.49967 11.3337C4.93325 11.3337 3.16543 9.80371 2.07915 8.39246C1.78676 8.0126 1.6155 7.78562 1.50285 7.53063C1.39757 7.29231 1.33301 7.00104 1.33301 6.50033C1.33301 5.99962 1.39757 5.70834 1.50285 5.47002C1.6155 5.21503 1.78676 4.98805 2.07915 4.60819Z" fill="#700B97"/>
</svg>
