<svg width="49" height="48" viewBox="0 0 49 48" fill="none" xmlns="http://www.w3.org/2000/svg">
<rect x="0.5" width="48" height="48" rx="24" fill="#EADAEF" fill-opacity="0.35"/>
<path fill-rule="evenodd" clip-rule="evenodd" d="M21.7584 12.333H27.2422C29.6926 12.333 31.6334 12.333 33.1524 12.5372C34.7156 12.7474 35.9809 13.1902 36.9787 14.188C37.9765 15.1858 38.4193 16.4511 38.6295 18.0143C38.7501 18.9115 38.7995 19.9558 38.8197 21.1654C38.8289 21.2199 38.8337 21.2759 38.8337 21.333C38.8337 21.38 38.8304 21.4263 38.8241 21.4715C38.8337 22.2258 38.8337 23.0421 38.8337 23.9245V23.9997C38.8337 24.552 38.3859 24.9997 37.8337 24.9997C37.2814 24.9997 36.8337 24.552 36.8337 23.9997C36.8337 23.4051 36.8335 22.8509 36.831 22.333H12.1696C12.1671 22.8509 12.167 23.4051 12.167 23.9997C12.167 26.5421 12.1691 28.3483 12.3533 29.7185C12.5337 31.06 12.8719 31.8329 13.4362 32.3971C14.0005 32.9614 14.7733 33.2996 16.1148 33.48C17.485 33.6642 19.2912 33.6663 21.8337 33.6663H27.167C27.7193 33.6663 28.167 34.1141 28.167 34.6663C28.167 35.2186 27.7193 35.6663 27.167 35.6663H21.7584C19.3081 35.6664 17.3672 35.6664 15.8483 35.4622C14.2851 35.252 13.0198 34.8092 12.022 33.8114C11.0242 32.8135 10.5813 31.5483 10.3712 29.985C10.167 28.4661 10.167 26.5252 10.167 24.0749V23.9245C10.167 23.0421 10.167 22.2258 10.1765 21.4715C10.1702 21.4262 10.167 21.38 10.167 21.333C10.167 21.2759 10.1718 21.2199 10.181 21.1654C10.2012 19.9558 10.2506 18.9115 10.3712 18.0143C10.5813 16.4511 11.0242 15.1858 12.022 14.188C13.0198 13.1902 14.2851 12.7474 15.8483 12.5372C17.3672 12.333 19.3081 12.333 21.7584 12.333ZM12.2018 20.333H36.7989C36.7728 19.5507 36.7272 18.8748 36.6473 18.2808C36.467 16.9394 36.1287 16.1665 35.5645 15.6022C35.0002 15.0379 34.2273 14.6997 32.8859 14.5194C31.5156 14.3351 29.7094 14.333 27.167 14.333H21.8337C19.2912 14.333 17.485 14.3351 16.1148 14.5194C14.7733 14.6997 14.0005 15.0379 13.4362 15.6022C12.8719 16.1665 12.5337 16.9394 12.3533 18.2808C12.2735 18.8748 12.2278 19.5507 12.2018 20.333ZM33.1266 25.9592C33.5171 25.5687 34.1502 25.5687 34.5408 25.9592L37.2074 28.6259C37.598 29.0164 37.598 29.6496 37.2074 30.0401C36.8169 30.4306 36.1837 30.4306 35.7932 30.0401L34.8337 29.0806V34.6663C34.8337 35.2186 34.3859 35.6663 33.8337 35.6663C33.2814 35.6663 32.8337 35.2186 32.8337 34.6663V29.0806L31.8741 30.0401C31.4836 30.4306 30.8504 30.4306 30.4599 30.0401C30.0694 29.6496 30.0694 29.0164 30.4599 28.6259L33.1266 25.9592ZM15.5003 29.333C15.5003 28.7807 15.948 28.333 16.5003 28.333H21.8337C22.3859 28.333 22.8337 28.7807 22.8337 29.333C22.8337 29.8853 22.3859 30.333 21.8337 30.333H16.5003C15.948 30.333 15.5003 29.8853 15.5003 29.333ZM24.167 29.333C24.167 28.7807 24.6147 28.333 25.167 28.333H25.8337C26.3859 28.333 26.8337 28.7807 26.8337 29.333C26.8337 29.8853 26.3859 30.333 25.8337 30.333H25.167C24.6147 30.333 24.167 29.8853 24.167 29.333Z" fill="white"/>
</svg>
