<svg width="48" height="48" viewBox="0 0 48 48" fill="none" xmlns="http://www.w3.org/2000/svg">
<rect width="48" height="48" rx="24" fill="#EADAEF" fill-opacity="0.35"/>
<path d="M30.667 26.6663C31.4034 26.6663 32.0003 26.0694 32.0003 25.333C32.0003 24.5966 31.4034 23.9997 30.667 23.9997C29.9306 23.9997 29.3337 24.5966 29.3337 25.333C29.3337 26.0694 29.9306 26.6663 30.667 26.6663Z" fill="white"/>
<path d="M30.667 31.9997C31.4034 31.9997 32.0003 31.4027 32.0003 30.6663C32.0003 29.93 31.4034 29.333 30.667 29.333C29.9306 29.333 29.3337 29.93 29.3337 30.6663C29.3337 31.4027 29.9306 31.9997 30.667 31.9997Z" fill="white"/>
<path d="M25.3337 25.333C25.3337 26.0694 24.7367 26.6663 24.0003 26.6663C23.2639 26.6663 22.667 26.0694 22.667 25.333C22.667 24.5966 23.2639 23.9997 24.0003 23.9997C24.7367 23.9997 25.3337 24.5966 25.3337 25.333Z" fill="white"/>
<path d="M25.3337 30.6663C25.3337 31.4027 24.7367 31.9997 24.0003 31.9997C23.2639 31.9997 22.667 31.4027 22.667 30.6663C22.667 29.93 23.2639 29.333 24.0003 29.333C24.7367 29.333 25.3337 29.93 25.3337 30.6663Z" fill="white"/>
<path d="M17.3337 26.6663C18.07 26.6663 18.667 26.0694 18.667 25.333C18.667 24.5966 18.07 23.9997 17.3337 23.9997C16.5973 23.9997 16.0003 24.5966 16.0003 25.333C16.0003 26.0694 16.5973 26.6663 17.3337 26.6663Z" fill="white"/>
<path d="M17.3337 31.9997C18.07 31.9997 18.667 31.4027 18.667 30.6663C18.667 29.93 18.07 29.333 17.3337 29.333C16.5973 29.333 16.0003 29.93 16.0003 30.6663C16.0003 31.4027 16.5973 31.9997 17.3337 31.9997Z" fill="white"/>
<path fill-rule="evenodd" clip-rule="evenodd" d="M17.3337 10.333C17.8859 10.333 18.3337 10.7807 18.3337 11.333V12.35C19.2163 12.333 20.1888 12.333 21.2583 12.333H26.7422C27.8117 12.333 28.7843 12.333 29.667 12.35V11.333C29.667 10.7807 30.1147 10.333 30.667 10.333C31.2193 10.333 31.667 10.7807 31.667 11.333V12.4358C32.0136 12.4622 32.3418 12.4954 32.6524 12.5372C34.2156 12.7474 35.4808 13.1902 36.4787 14.188C37.4765 15.1858 37.9193 16.4511 38.1295 18.0143C38.3337 19.5333 38.3337 21.4741 38.3337 23.9244V26.7416C38.3337 29.1919 38.3337 31.1328 38.1295 32.6517C37.9193 34.2149 37.4765 35.4802 36.4787 36.478C35.4808 37.4758 34.2156 37.9187 32.6524 38.1288C31.1334 38.333 29.1926 38.333 26.7423 38.333H21.2584C18.8081 38.333 16.8672 38.333 15.3483 38.1288C13.7851 37.9187 12.5198 37.4758 11.522 36.478C10.5242 35.4802 10.0813 34.2149 9.87117 32.6517C9.66696 31.1328 9.66697 29.1919 9.66699 26.7416V23.9245C9.66697 21.4741 9.66696 19.5333 9.87117 18.0143C10.0813 16.4511 10.5242 15.1858 11.522 14.188C12.5198 13.1902 13.7851 12.7474 15.3483 12.5372C15.6589 12.4954 15.9871 12.4622 16.3337 12.4358V11.333C16.3337 10.7807 16.7814 10.333 17.3337 10.333ZM15.6148 14.5194C14.2733 14.6997 13.5005 15.0379 12.9362 15.6022C12.3719 16.1665 12.0337 16.9394 11.8533 18.2808C11.8228 18.508 11.7973 18.7472 11.7759 18.9997H36.2247C36.2034 18.7472 36.1779 18.508 36.1473 18.2808C35.967 16.9394 35.6287 16.1665 35.0645 15.6022C34.5002 15.0379 33.7273 14.6997 32.3859 14.5194C31.0156 14.3351 29.2094 14.333 26.667 14.333H21.3337C18.7912 14.333 16.985 14.3351 15.6148 14.5194ZM11.667 23.9997C11.667 22.861 11.6674 21.87 11.6844 20.9997H36.3162C36.3332 21.87 36.3337 22.861 36.3337 23.9997V26.6663C36.3337 29.2088 36.3315 31.015 36.1473 32.3852C35.967 33.7267 35.6287 34.4995 35.0645 35.0638C34.5002 35.6281 33.7273 35.9663 32.3859 36.1467C31.0156 36.3309 29.2094 36.333 26.667 36.333H21.3337C18.7912 36.333 16.985 36.3309 15.6148 36.1467C14.2733 35.9663 13.5005 35.6281 12.9362 35.0638C12.3719 34.4995 12.0337 33.7267 11.8533 32.3852C11.6691 31.015 11.667 29.2088 11.667 26.6663V23.9997Z" fill="white"/>
</svg>
