<svg width="56" height="56" viewBox="0 0 56 56" fill="none" xmlns="http://www.w3.org/2000/svg">
<path d="M13.0046 28.594C13.4925 29.0825 13.492 29.8739 13.0035 30.3618L12.7472 30.6178C12.5283 30.8365 12.5283 31.1904 12.7472 31.4091C12.967 31.6286 13.324 31.6286 13.5438 31.4091L16.3633 28.5929C16.8518 28.1051 17.6432 28.1056 18.1311 28.594C18.619 29.0825 18.6185 29.8739 18.13 30.3618L15.3105 33.1779C14.1146 34.3723 12.1764 34.3723 10.9805 33.1779C9.78383 31.9827 9.78383 30.0442 10.9805 28.849L11.2369 28.5929C11.7253 28.1051 12.5168 28.1056 13.0046 28.594Z" fill="#700B97"/>
<path d="M21.0948 30.2545C21.5829 30.7426 21.5829 31.5341 21.0948 32.0222L17.5666 35.5504C17.0784 36.0386 16.287 36.0386 15.7988 35.5504C15.3107 35.0623 15.3107 34.2708 15.7988 33.7826L19.327 30.2545C19.8151 29.7663 20.6066 29.7663 21.0948 30.2545Z" fill="#700B97"/>
<path d="M25.7209 34.875C26.2091 35.3632 26.2091 36.1546 25.7209 36.6428L22.2169 40.1468C21.7287 40.635 20.9373 40.635 20.4491 40.1468C19.961 39.6587 19.961 38.8672 20.4491 38.3791L23.9532 34.875C24.4413 34.3869 25.2328 34.3869 25.7209 34.875Z" fill="#700B97"/>
<path d="M20.4534 35.5348C20.9361 36.0283 20.9273 36.8197 20.4337 37.3024L17.5844 40.089C17.0909 40.5717 16.2995 40.5629 15.8168 40.0693C15.3341 39.5758 15.3429 38.7844 15.8364 38.3017L18.6857 35.5151C19.1793 35.0324 19.9707 35.0412 20.4534 35.5348Z" fill="#700B97"/>
<path d="M27.3436 37.8767C27.8314 38.3651 27.831 39.1566 27.3425 39.6445L24.5229 42.4606C24.304 42.6793 24.304 43.0332 24.5229 43.2519C24.7427 43.4714 25.0997 43.4714 25.3195 43.2519L25.5758 42.9959C26.0643 42.508 26.8557 42.5085 27.3436 42.9969C27.8314 43.4854 27.831 44.2769 27.3425 44.7647L27.0862 45.0207C25.8903 46.2151 23.9521 46.2151 22.7562 45.0207C21.5596 43.8255 21.5596 41.887 22.7562 40.6918L25.5758 37.8756C26.0643 37.3878 26.8557 37.3882 27.3436 37.8767Z" fill="#700B97"/>
<path fill-rule="evenodd" clip-rule="evenodd" d="M37.9863 10.0831L38.2091 10.0832L39.1179 10.0832C40.3738 10.0831 41.4397 10.0831 42.29 10.1969C43.1945 10.318 44.0399 10.5881 44.7235 11.2688C45.4078 11.9502 45.68 12.7943 45.802 13.6975C45.9165 14.5452 45.9164 15.6076 45.9163 16.8574L45.9163 17.7632L45.9164 17.9864C45.9174 19.488 45.9181 20.5876 45.4989 21.5954C45.0799 22.6027 44.2994 23.379 43.2323 24.4401L43.0738 24.5978L39.2972 28.3586L39.3626 28.4595C39.9308 29.3358 40.3961 30.0537 40.733 30.6744C41.0837 31.3205 41.3387 31.9371 41.4411 32.6245C41.6038 33.7179 41.4565 34.8407 41.0258 35.8711C40.8616 36.2642 40.5813 36.6682 40.3033 37.0262C40.0103 37.4037 39.6534 37.8132 39.2721 38.2281C38.5139 39.0533 37.6045 39.9588 36.8002 40.7598L36.7885 40.7715L36.6666 40.8928C35.5427 42.012 33.5929 41.6519 32.9916 40.1451C32.6601 39.3145 32.5305 38.9957 32.3693 38.7021C32.2186 38.4277 32.0456 38.1659 31.8522 37.9193C31.6482 37.6594 31.4095 37.4179 30.7959 36.8068L30.0909 36.1894C29.9727 36.2021 29.8528 36.2086 29.7313 36.2086C28.7664 36.2086 27.977 35.8049 27.2503 35.2528C26.5679 34.7344 25.8139 33.9834 24.9261 33.0993L22.8155 30.9976C21.9277 30.1136 21.1736 29.3628 20.6528 28.6831C20.0985 27.9596 19.691 27.171 19.691 26.2054C19.691 26.0597 19.7004 25.9167 19.7186 25.7761L18.5728 24.6351C18.5023 24.565 18.4751 24.5379 18.4483 24.5119C17.9214 24.0013 17.3013 23.595 16.6211 23.3151C16.5865 23.3009 16.5508 23.2867 16.4581 23.2501L15.9091 23.0328C14.3313 22.4083 13.9044 20.3719 15.111 19.1704L15.1227 19.1588C15.9271 18.3578 16.8365 17.4523 17.6651 16.6973C18.0818 16.3176 18.4929 15.9623 18.8719 15.6705C19.2316 15.3937 19.6366 15.1151 20.0301 14.9521C21.063 14.5241 22.1877 14.3778 23.2827 14.5395C23.9707 14.641 24.5884 14.8942 25.2369 15.2432C25.86 15.5785 26.5807 16.0418 27.461 16.6077L27.5705 16.6781L31.3531 12.9115L31.5106 12.7546C32.5772 11.6911 33.3561 10.9144 34.3662 10.4978C35.3757 10.0814 36.4769 10.0821 37.9863 10.0831ZM37.4865 30.1616C37.9554 30.8868 38.292 31.4177 38.5358 31.867C38.8122 32.3763 38.9253 32.7035 38.9683 32.9926C39.0619 33.6216 38.9794 34.2845 38.7192 34.9071C38.6876 34.9827 38.5772 35.1729 38.3286 35.4931C38.0951 35.7939 37.7895 36.1467 37.4313 36.5366C36.7562 37.2712 35.9433 38.0846 35.1688 38.8562C34.9388 38.2825 34.7708 37.8815 34.5606 37.4987C34.3444 37.105 34.0964 36.7295 33.819 36.376C33.5062 35.9774 33.1483 35.6211 32.5872 35.0625L32.5268 35.0023C32.5831 34.9556 32.639 34.9081 32.6948 34.86C33.2443 34.386 33.8596 33.7732 34.5672 33.0686L37.4865 30.1616ZM38.2091 12.5832C36.3808 12.5832 35.8135 12.6052 35.3194 12.809C34.8259 13.0125 34.41 13.3956 33.1171 14.683L24.6392 23.1252C23.9151 23.8463 23.3717 24.3883 22.9634 24.8537C22.5528 25.3217 22.3555 25.6287 22.2629 25.8587C22.2102 25.9896 22.191 26.0974 22.191 26.2054C22.191 26.4013 22.2529 26.6609 22.6373 27.1626C23.0436 27.6929 23.6754 28.3258 24.6392 29.2855L24.7529 29.3987L26.8579 27.3026C27.3471 26.8155 28.1385 26.8171 28.6257 27.3063C29.1128 27.7955 29.1111 28.587 28.6219 29.0741L26.5244 31.1628L26.6306 31.2685C27.5943 32.2282 28.23 32.8574 28.7627 33.2622C29.2664 33.6449 29.5296 33.7086 29.7313 33.7086C29.8343 33.7086 29.9351 33.6916 30.0521 33.6485C30.2792 33.565 30.5859 33.3775 31.0619 32.9669C31.5358 32.5581 32.089 32.0083 32.8319 31.2685L41.3098 22.8263C42.6033 21.5383 42.987 21.1248 43.1907 20.6353C43.3941 20.1463 43.4163 19.5849 43.4163 17.7632L43.4163 16.9418C43.4163 15.5844 43.4137 14.6926 43.3245 14.032C43.2402 13.4079 43.1 13.1802 42.9595 13.0403C42.8182 12.8996 42.5875 12.7591 41.9582 12.6748C41.2936 12.5858 40.3967 12.5832 39.034 12.5832H38.2091ZM38.5787 17.3878C36.9911 15.807 34.4194 15.807 32.8319 17.3878C31.2415 18.9715 31.2415 21.5415 32.8319 23.1252C34.4194 24.706 36.9911 24.706 38.5787 23.1252C40.1691 21.5415 40.1691 18.9715 38.5787 17.3878ZM34.596 19.1593C35.208 18.5498 36.2026 18.5498 36.8146 19.1593C37.4238 19.7659 37.4238 20.7471 36.8146 21.3537C36.2026 21.9632 35.208 21.9632 34.596 21.3537C33.9868 20.7471 33.9868 19.7659 34.596 19.1593ZM25.7567 18.4844C25.0328 18.0203 24.5018 17.6867 24.0521 17.4446C23.5403 17.1692 23.2102 17.0559 22.9176 17.0127C22.283 16.919 21.6145 17.0017 20.9872 17.2616C20.9101 17.2936 20.7184 17.404 20.397 17.6515C20.0948 17.8841 19.7404 18.1885 19.3489 18.5452C18.6145 19.2144 17.8017 20.0196 17.03 20.7877L17.3781 20.9255L17.3865 20.9288C17.4683 20.9612 17.5204 20.9818 17.5725 21.0032C18.5454 21.4036 19.4332 21.985 20.1881 22.7167C20.2286 22.7559 20.2684 22.7956 20.3311 22.858L20.8978 23.4223C20.9587 23.3494 21.0209 23.277 21.0841 23.205C21.5544 22.669 22.1571 22.0688 22.8484 21.3804L25.7567 18.4844Z" fill="#700B97"/>
</svg>
