<svg width="48" height="48" viewBox="0 0 48 48" fill="none" xmlns="http://www.w3.org/2000/svg">
<rect width="48" height="48" rx="24" fill="#EADAEF" fill-opacity="0.35"/>
<path fill-rule="evenodd" clip-rule="evenodd" d="M14.9995 16.0003C14.9995 12.5025 17.8351 9.66699 21.3329 9.66699C24.8307 9.66699 27.6662 12.5025 27.6662 16.0003C27.6662 19.4981 24.8307 22.3337 21.3329 22.3337C17.8351 22.3337 14.9995 19.4981 14.9995 16.0003ZM21.3329 11.667C18.9396 11.667 16.9995 13.6071 16.9995 16.0003C16.9995 18.3936 18.9396 20.3337 21.3329 20.3337C23.7261 20.3337 25.6662 18.3936 25.6662 16.0003C25.6662 13.6071 23.7261 11.667 21.3329 11.667Z" fill="white"/>
<path fill-rule="evenodd" clip-rule="evenodd" d="M13.3001 26.2194C15.4061 25.0348 18.2481 24.3337 21.3329 24.3337C24.4176 24.3337 27.2596 25.0348 29.3656 26.2194C31.4402 27.3864 32.9995 29.1551 32.9995 31.3337L32.9996 31.4696C33.0011 33.0187 33.003 34.963 31.2976 36.3517C30.4584 37.0352 29.2842 37.5212 27.6979 37.8423C26.1072 38.1643 24.0339 38.3337 21.3329 38.3337C18.6318 38.3337 16.5585 38.1643 14.9678 37.8423C13.3815 37.5212 12.2074 37.0352 11.3681 36.3517C9.66271 34.963 9.6646 33.0187 9.66611 31.4696L9.66619 31.3337C9.66619 29.1551 11.2255 27.3864 13.3001 26.2194ZM14.2806 27.9626C12.4947 28.9672 11.6662 30.1985 11.6662 31.3337C11.6662 33.0774 11.7199 34.059 12.631 34.8009C13.125 35.2032 13.9509 35.5959 15.3646 35.882C16.7738 36.1673 18.7006 36.3337 21.3329 36.3337C23.9652 36.3337 25.8919 36.1673 27.3011 35.882C28.7148 35.5959 29.5407 35.2032 30.0347 34.8009C30.9458 34.059 30.9995 33.0774 30.9995 31.3337C30.9995 30.1985 30.171 28.9672 28.3851 27.9626C26.6305 26.9756 24.1392 26.3337 21.3329 26.3337C18.5266 26.3337 16.0353 26.9756 14.2806 27.9626Z" fill="white"/>
<path fill-rule="evenodd" clip-rule="evenodd" d="M30.2532 17.9296C31.2141 17.5044 32.33 17.585 33.3329 18.2388C34.3357 17.585 35.4517 17.5044 36.4125 17.9296C37.5526 18.4341 38.3329 19.5994 38.3329 20.9333C38.3329 22.1978 37.7806 23.1497 37.1188 23.8711C36.6023 24.4342 35.9634 24.9097 35.4588 25.2852C35.3505 25.3658 35.2483 25.4419 35.1549 25.5132L35.1522 25.5152C34.9539 25.6665 34.6975 25.8623 34.4272 26.0152C34.1552 26.169 33.7787 26.3337 33.3329 26.3337C32.887 26.3337 32.5105 26.169 32.2386 26.0152C31.9682 25.8623 31.7118 25.6666 31.5135 25.5152L31.5109 25.5132C31.4175 25.4419 31.3154 25.3659 31.2071 25.2853C30.7026 24.9098 30.0634 24.4342 29.5469 23.8711C28.8852 23.1497 28.3329 22.1978 28.3329 20.9333C28.3329 19.5994 29.1131 18.4341 30.2532 17.9296ZM30.3329 20.9333C30.3329 20.384 30.6526 19.9399 31.0626 19.7585C31.4176 19.6014 31.9827 19.5853 32.6237 20.2301C32.8114 20.4189 33.0666 20.525 33.3329 20.525C33.5991 20.525 33.8543 20.4189 34.042 20.2301C34.683 19.5853 35.2482 19.6014 35.6032 19.7585C36.0131 19.9399 36.3329 20.384 36.3329 20.9333C36.3329 21.552 36.0813 22.0435 35.6449 22.5192C35.2689 22.9291 34.8204 23.2643 34.3246 23.6349C34.1998 23.7282 34.0719 23.8238 33.9415 23.9233C33.7248 24.0887 33.5747 24.1996 33.4424 24.2745C33.3889 24.3047 33.3533 24.3201 33.3329 24.3278C33.3124 24.3201 33.2768 24.3047 33.2233 24.2745C33.0911 24.1996 32.9409 24.0887 32.7242 23.9233C32.5938 23.8238 32.466 23.7283 32.3412 23.635C31.8454 23.2644 31.3968 22.9291 31.0208 22.5192C30.5845 22.0435 30.3329 21.552 30.3329 20.9333Z" fill="white"/>
</svg>
