<svg width="40" height="40" viewBox="0 0 40 40" fill="none" xmlns="http://www.w3.org/2000/svg">
<path fill-rule="evenodd" clip-rule="evenodd" d="M18.7497 3.33301C18.7497 2.64265 19.3093 2.08301 19.9997 2.08301C29.8948 2.08301 37.9163 10.1046 37.9163 19.9997C37.9163 29.8948 29.8948 37.9163 19.9997 37.9163C10.1046 37.9163 2.08301 29.8948 2.08301 19.9997C2.08301 19.3093 2.64265 18.7497 3.33301 18.7497C4.02336 18.7497 4.58301 19.3093 4.58301 19.9997C4.58301 28.5141 11.4853 35.4163 19.9997 35.4163C28.5141 35.4163 35.4163 28.5141 35.4163 19.9997C35.4163 11.4853 28.5141 4.58301 19.9997 4.58301C19.3093 4.58301 18.7497 4.02336 18.7497 3.33301ZM19.9997 13.7497C20.69 13.7497 21.2497 14.3093 21.2497 14.9997V20.4163H26.6663C27.3567 20.4163 27.9163 20.976 27.9163 21.6663C27.9163 22.3567 27.3567 22.9163 26.6663 22.9163H19.9997C19.3093 22.9163 18.7497 22.3567 18.7497 21.6663V14.9997C18.7497 14.3093 19.3093 13.7497 19.9997 13.7497Z" fill="#700B97"/>
<path fill-rule="evenodd" clip-rule="evenodd" d="M15.1656 3.99557C15.4142 4.63961 15.0937 5.36325 14.4497 5.61186C14.2139 5.70285 13.981 5.79948 13.751 5.90158C13.12 6.1817 12.3814 5.89727 12.1013 5.2663C11.8212 4.63532 12.1056 3.89674 12.7366 3.61663C13.0041 3.49787 13.2751 3.38546 13.5493 3.27959C14.1934 3.03098 14.917 3.35154 15.1656 3.99557ZM9.41251 7.06678C9.88862 7.5667 9.86931 8.35792 9.3694 8.83402C9.18661 9.0081 9.0081 9.18662 8.83402 9.3694C8.35792 9.86931 7.5667 9.88862 7.06678 9.41252C6.56686 8.93641 6.54756 8.14519 7.02366 7.64527C7.22578 7.43305 7.43305 7.22578 7.64527 7.02367C8.14519 6.54756 8.93641 6.56687 9.41251 7.06678ZM5.2663 12.1013C5.89727 12.3815 6.1817 13.12 5.90158 13.751C5.79948 13.981 5.70285 14.2139 5.61186 14.4497C5.36325 15.0937 4.63961 15.4142 3.99557 15.1656C3.35154 14.917 3.03098 14.1934 3.27959 13.5494C3.38546 13.2751 3.49787 13.0041 3.61663 12.7366C3.89674 12.1056 4.63532 11.8212 5.2663 12.1013Z" fill="#700B97"/>
</svg>
