<svg width="102" height="88" viewBox="0 0 102 88" fill="none" xmlns="http://www.w3.org/2000/svg">
<g filter="url(#filter0_d_2482_2817)">
<path d="M61.8859 24.1967L65.9984 32.4217C66.5526 33.5592 68.0401 34.6384 69.2942 34.8717L76.7317 36.0967C81.4859 36.8842 82.5942 40.3259 79.1817 43.7676L73.3776 49.5717C72.4151 50.5342 71.8609 52.4301 72.1817 53.8009L73.8442 60.9759C75.1567 66.6342 72.1234 68.8509 67.1359 65.8759L60.1651 61.7342C58.9109 60.9759 56.8109 60.9759 55.5567 61.7342L48.5859 65.8759C43.5984 68.8217 40.5651 66.6342 41.8776 60.9759L43.5401 53.8009C43.8026 52.4009 43.2484 50.5051 42.2859 49.5426L36.4817 43.7384C33.0692 40.3259 34.1776 36.8842 38.9317 36.0676L46.3692 34.8426C47.6234 34.6384 49.1109 33.5301 49.6651 32.3926L53.7776 24.1676C56.0234 19.7342 59.6401 19.7342 61.8859 24.1967Z" fill="white"/>
</g>
<g filter="url(#filter1_d_2482_2817)">
<path d="M40.332 25.771H22.832C21.6362 25.771 20.6445 24.7793 20.6445 23.5835C20.6445 22.3877 21.6362 21.396 22.832 21.396H40.332C41.5279 21.396 42.5195 22.3877 42.5195 23.5835C42.5195 24.7793 41.5279 25.771 40.332 25.771Z" fill="white"/>
</g>
<g filter="url(#filter2_d_2482_2817)">
<path d="M31.582 66.604H22.832C21.6362 66.604 20.6445 65.6123 20.6445 64.4165C20.6445 63.2207 21.6362 62.229 22.832 62.229H31.582C32.7779 62.229 33.7695 63.2207 33.7695 64.4165C33.7695 65.6123 32.7779 66.604 31.582 66.604Z" fill="white"/>
</g>
<g filter="url(#filter3_d_2482_2817)">
<path d="M25.7487 46.1875H22.832C21.6362 46.1875 20.6445 45.1958 20.6445 44C20.6445 42.8042 21.6362 41.8125 22.832 41.8125H25.7487C26.9445 41.8125 27.9362 42.8042 27.9362 44C27.9362 45.1958 26.9445 46.1875 25.7487 46.1875Z" fill="white"/>
</g>
<defs>
<filter id="filter0_d_2482_2817" x="14.5" y="0.846191" width="86.6641" height="86.3525" filterUnits="userSpaceOnUse" color-interpolation-filters="sRGB">
<feFlood flood-opacity="0" result="BackgroundImageFix"/>
<feColorMatrix in="SourceAlpha" type="matrix" values="0 0 0 0 0 0 0 0 0 0 0 0 0 0 0 0 0 0 127 0" result="hardAlpha"/>
<feOffset/>
<feGaussianBlur stdDeviation="10"/>
<feComposite in2="hardAlpha" operator="out"/>
<feColorMatrix type="matrix" values="0 0 0 0 1 0 0 0 0 1 0 0 0 0 1 0 0 0 0.46 0"/>
<feBlend mode="normal" in2="BackgroundImageFix" result="effect1_dropShadow_2482_2817"/>
<feBlend mode="normal" in="SourceGraphic" in2="effect1_dropShadow_2482_2817" result="shape"/>
</filter>
<filter id="filter1_d_2482_2817" x="0.644531" y="1.396" width="61.875" height="44.375" filterUnits="userSpaceOnUse" color-interpolation-filters="sRGB">
<feFlood flood-opacity="0" result="BackgroundImageFix"/>
<feColorMatrix in="SourceAlpha" type="matrix" values="0 0 0 0 0 0 0 0 0 0 0 0 0 0 0 0 0 0 127 0" result="hardAlpha"/>
<feOffset/>
<feGaussianBlur stdDeviation="10"/>
<feComposite in2="hardAlpha" operator="out"/>
<feColorMatrix type="matrix" values="0 0 0 0 1 0 0 0 0 1 0 0 0 0 1 0 0 0 0.46 0"/>
<feBlend mode="normal" in2="BackgroundImageFix" result="effect1_dropShadow_2482_2817"/>
<feBlend mode="normal" in="SourceGraphic" in2="effect1_dropShadow_2482_2817" result="shape"/>
</filter>
<filter id="filter2_d_2482_2817" x="0.644531" y="42.229" width="53.125" height="44.375" filterUnits="userSpaceOnUse" color-interpolation-filters="sRGB">
<feFlood flood-opacity="0" result="BackgroundImageFix"/>
<feColorMatrix in="SourceAlpha" type="matrix" values="0 0 0 0 0 0 0 0 0 0 0 0 0 0 0 0 0 0 127 0" result="hardAlpha"/>
<feOffset/>
<feGaussianBlur stdDeviation="10"/>
<feComposite in2="hardAlpha" operator="out"/>
<feColorMatrix type="matrix" values="0 0 0 0 1 0 0 0 0 1 0 0 0 0 1 0 0 0 0.46 0"/>
<feBlend mode="normal" in2="BackgroundImageFix" result="effect1_dropShadow_2482_2817"/>
<feBlend mode="normal" in="SourceGraphic" in2="effect1_dropShadow_2482_2817" result="shape"/>
</filter>
<filter id="filter3_d_2482_2817" x="0.644531" y="21.8125" width="47.293" height="44.375" filterUnits="userSpaceOnUse" color-interpolation-filters="sRGB">
<feFlood flood-opacity="0" result="BackgroundImageFix"/>
<feColorMatrix in="SourceAlpha" type="matrix" values="0 0 0 0 0 0 0 0 0 0 0 0 0 0 0 0 0 0 127 0" result="hardAlpha"/>
<feOffset/>
<feGaussianBlur stdDeviation="10"/>
<feComposite in2="hardAlpha" operator="out"/>
<feColorMatrix type="matrix" values="0 0 0 0 1 0 0 0 0 1 0 0 0 0 1 0 0 0 0.46 0"/>
<feBlend mode="normal" in2="BackgroundImageFix" result="effect1_dropShadow_2482_2817"/>
<feBlend mode="normal" in="SourceGraphic" in2="effect1_dropShadow_2482_2817" result="shape"/>
</filter>
</defs>
</svg>
