<svg width="90" height="100" viewBox="0 0 90 100" fill="none" xmlns="http://www.w3.org/2000/svg">
<g filter="url(#filter0_d_2482_2820)">
<path d="M35.7242 29.2917L31.9908 23.1084C30.5908 20.8334 27.82 19.55 25.2242 20.3084C21.3158 21.475 19.7992 25.8792 21.7533 29.1167L25.6033 35.4459C26.0408 36.1167 26.945 36.35 27.6158 35.9417L35.2283 31.3042C35.9283 30.8667 36.1617 29.9625 35.7242 29.2917Z" fill="white"/>
</g>
<g filter="url(#filter1_d_2482_2820)">
<path d="M67.5767 56.4454L59.3809 45.362C56.5226 41.512 51.5642 39.7037 46.8976 40.9579C46.8976 40.9287 46.8684 40.9287 46.8684 40.8995L42.0267 32.937C41.1517 31.5662 39.3434 31.1287 37.9726 31.9745L27.8517 38.1287C26.4517 38.9454 26.0142 40.7829 26.8601 42.1829L31.6726 50.1454C31.6726 50.1454 31.6726 50.1745 31.7017 50.1745C28.4642 53.762 27.7642 58.9829 29.9226 63.3287L35.9892 75.6954C37.8559 79.5162 42.2601 80.9745 45.9934 79.0495C46.2851 78.9037 46.3726 78.5537 46.1976 78.262L41.6476 70.737C41.0059 69.687 41.3267 68.3454 42.3767 67.6745C43.4267 67.062 44.7684 67.3829 45.4392 68.4037L50.0184 75.9287C50.1934 76.1912 50.5434 76.2787 50.8059 76.1329L53.6059 74.4412C53.8684 74.2662 53.9559 73.9162 53.8101 73.6537L49.2309 66.1287C48.6184 65.0787 48.9392 63.737 49.9601 63.0662C51.0392 62.4537 52.3809 62.7745 53.0226 63.7954L57.6017 71.3204C57.7767 71.5829 58.1267 71.6704 58.3892 71.5245L61.1892 69.8329C61.4517 69.6579 61.5392 69.3079 61.3934 69.0454L56.8142 61.5204C56.2017 60.4704 56.5226 59.1287 57.5434 58.4579C58.6226 57.8454 59.9642 58.1662 60.6059 59.187L65.2142 66.6829C65.3892 66.9454 65.7392 67.0329 66.0017 66.8579C69.3851 64.437 70.1434 59.887 67.5767 56.4454Z" fill="white"/>
</g>
<defs>
<filter id="filter0_d_2482_2820" x="0.902344" y="0.0898438" width="55.043" height="56.0537" filterUnits="userSpaceOnUse" color-interpolation-filters="sRGB">
<feFlood flood-opacity="0" result="BackgroundImageFix"/>
<feColorMatrix in="SourceAlpha" type="matrix" values="0 0 0 0 0 0 0 0 0 0 0 0 0 0 0 0 0 0 127 0" result="hardAlpha"/>
<feOffset/>
<feGaussianBlur stdDeviation="10"/>
<feComposite in2="hardAlpha" operator="out"/>
<feColorMatrix type="matrix" values="0 0 0 0 1 0 0 0 0 1 0 0 0 0 1 0 0 0 0.46 0"/>
<feBlend mode="normal" in2="BackgroundImageFix" result="effect1_dropShadow_2482_2820"/>
<feBlend mode="normal" in="SourceGraphic" in2="effect1_dropShadow_2482_2820" result="shape"/>
</filter>
<filter id="filter1_d_2482_2820" x="6.42969" y="11.543" width="82.6758" height="88.353" filterUnits="userSpaceOnUse" color-interpolation-filters="sRGB">
<feFlood flood-opacity="0" result="BackgroundImageFix"/>
<feColorMatrix in="SourceAlpha" type="matrix" values="0 0 0 0 0 0 0 0 0 0 0 0 0 0 0 0 0 0 127 0" result="hardAlpha"/>
<feOffset/>
<feGaussianBlur stdDeviation="10"/>
<feComposite in2="hardAlpha" operator="out"/>
<feColorMatrix type="matrix" values="0 0 0 0 1 0 0 0 0 1 0 0 0 0 1 0 0 0 0.46 0"/>
<feBlend mode="normal" in2="BackgroundImageFix" result="effect1_dropShadow_2482_2820"/>
<feBlend mode="normal" in="SourceGraphic" in2="effect1_dropShadow_2482_2820" result="shape"/>
</filter>
</defs>
</svg>
