<svg width="56" height="57" viewBox="0 0 56 57" fill="none" xmlns="http://www.w3.org/2000/svg">
<path opacity="0.5" d="M33.132 7.5H22.8654C13.1859 7.5 8.34611 7.5 5.33907 10.5754C2.33203 13.6508 2.33203 18.6005 2.33203 28.5C2.33203 38.3995 2.33203 43.3492 5.33907 46.4246C8.34611 49.5 13.1859 49.5 22.8654 49.5H33.132C42.8115 49.5 47.6513 49.5 50.6583 46.4246C53.6654 43.3492 53.6654 38.3995 53.6654 28.5C53.6654 18.6005 53.6654 13.6508 50.6583 10.5754C47.6513 7.5 42.8115 7.5 33.132 7.5Z" fill="#AA205E"/>
<path d="M44.6332 19.2457C45.4499 18.5651 45.5603 17.3512 44.8797 16.5345C44.199 15.7178 42.9852 15.6074 42.1685 16.288L36.6273 20.9057C34.2327 22.9012 32.5702 24.2821 31.1666 25.1848C29.8079 26.0587 28.8865 26.352 28.0008 26.352C27.1151 26.352 26.1937 26.0587 24.8351 25.1848C23.4315 24.2821 21.7689 22.9012 19.3744 20.9057L13.8332 16.288C13.0165 15.6074 11.8026 15.7178 11.122 16.5345C10.4414 17.3512 10.5517 18.5651 11.3685 19.2457L17.0061 23.9437C19.2811 25.8396 21.125 27.3762 22.7525 28.4229C24.4477 29.5133 26.0987 30.202 28.0008 30.202C29.9029 30.202 31.5539 29.5133 33.2492 28.4229C34.8766 27.3762 36.7206 25.8396 38.9956 23.9437L44.6332 19.2457Z" fill="#AA205E"/>
</svg>
