<svg width="12" height="15" viewBox="0 0 12 15" fill="none" xmlns="http://www.w3.org/2000/svg">
<path fill-rule="evenodd" clip-rule="evenodd" d="M5.99967 0.833496C4.25077 0.833496 2.83301 2.25126 2.83301 4.00016C2.83301 5.74906 4.25077 7.16683 5.99967 7.16683C7.74858 7.16683 9.16634 5.74906 9.16634 4.00016C9.16634 2.25126 7.74858 0.833496 5.99967 0.833496ZM3.83301 4.00016C3.83301 2.80355 4.80306 1.8335 5.99967 1.8335C7.19629 1.8335 8.16634 2.80355 8.16634 4.00016C8.16634 5.19678 7.19629 6.16683 5.99967 6.16683C4.80306 6.16683 3.83301 5.19678 3.83301 4.00016Z" fill="white"/>
<path fill-rule="evenodd" clip-rule="evenodd" d="M5.99967 8.16683C4.64012 8.16683 3.38469 8.48066 2.45177 9.01376C1.53301 9.53877 0.833008 10.3403 0.833008 11.3335C0.833008 12.3267 1.53301 13.1282 2.45177 13.6532C3.38469 14.1863 4.64012 14.5002 5.99967 14.5002C7.35923 14.5002 8.61466 14.1863 9.54758 13.6532C10.4663 13.1282 11.1663 12.3267 11.1663 11.3335C11.1663 10.3403 10.4663 9.53877 9.54758 9.01376C8.61466 8.48066 7.35923 8.16683 5.99967 8.16683ZM1.83301 11.3335C1.83301 10.854 2.17768 10.3221 2.94791 9.882C3.704 9.44995 4.7819 9.16683 5.99967 9.16683C7.21745 9.16683 8.29535 9.44995 9.05144 9.882C9.82167 10.3221 10.1663 10.854 10.1663 11.3335C10.1663 11.813 9.82167 12.3449 9.05144 12.785C8.29535 13.217 7.21745 13.5002 5.99967 13.5002C4.7819 13.5002 3.704 13.217 2.94791 12.785C2.17768 12.3449 1.83301 11.813 1.83301 11.3335Z" fill="white"/>
</svg>
