<svg width="56" height="57" viewBox="0 0 56 57" fill="none" xmlns="http://www.w3.org/2000/svg">
<path opacity="0.5" d="M46.0064 48.012C49.3351 46.197 51.3346 43.8701 51.3346 41.333C51.3346 38.6438 49.088 36.1907 45.3932 34.333C41.1207 32.1849 34.9119 30.833 28.0013 30.833C21.0907 30.833 14.8819 32.1849 10.6094 34.333C6.91461 36.1907 4.66797 38.6438 4.66797 41.333C4.66797 44.0222 6.9146 46.4754 10.6093 48.333C14.8818 50.4811 21.0907 51.833 28.0013 51.833C35.25 51.833 41.7268 50.3456 46.0064 48.012Z" fill="#AA205E"/>
<path fill-rule="evenodd" clip-rule="evenodd" d="M11.668 20.3678C11.668 11.9726 18.9807 5.16699 28.0013 5.16699C37.022 5.16699 44.3346 11.9726 44.3346 20.3678C44.3346 28.6972 39.1216 38.4168 30.9881 41.8926C29.0921 42.7029 26.9105 42.7029 25.0145 41.8926C16.881 38.4168 11.668 28.6972 11.668 20.3678ZM28.0013 26.167C30.5786 26.167 32.668 24.0777 32.668 21.5003C32.668 18.923 30.5786 16.8337 28.0013 16.8337C25.424 16.8337 23.3346 18.923 23.3346 21.5003C23.3346 24.0777 25.424 26.167 28.0013 26.167Z" fill="#AA205E"/>
</svg>
