<svg width="16" height="22" viewBox="0 0 16 22" fill="none" xmlns="http://www.w3.org/2000/svg">
<path fill-rule="evenodd" clip-rule="evenodd" d="M8 0.75C5.37665 0.75 3.25 2.87665 3.25 5.5C3.25 8.12335 5.37665 10.25 8 10.25C10.6234 10.25 12.75 8.12335 12.75 5.5C12.75 2.87665 10.6234 0.75 8 0.75ZM4.75 5.5C4.75 3.70507 6.20507 2.25 8 2.25C9.79493 2.25 11.25 3.70507 11.25 5.5C11.25 7.29493 9.79493 8.75 8 8.75C6.20507 8.75 4.75 7.29493 4.75 5.5Z" fill="#700B97"/>
<path fill-rule="evenodd" clip-rule="evenodd" d="M8 11.75C5.96067 11.75 4.07752 12.2208 2.67815 13.0204C1.3 13.8079 0.25 15.0101 0.25 16.5C0.25 17.9899 1.3 19.1921 2.67815 19.9796C4.07752 20.7792 5.96067 21.25 8 21.25C10.0393 21.25 11.9225 20.7792 13.3219 19.9796C14.7 19.1921 15.75 17.9899 15.75 16.5C15.75 15.0101 14.7 13.8079 13.3219 13.0204C11.9225 12.2208 10.0393 11.75 8 11.75ZM1.75 16.5C1.75 15.7807 2.26701 14.983 3.42236 14.3228C4.55649 13.6747 6.17334 13.25 8 13.25C9.82666 13.25 11.4435 13.6747 12.5776 14.3228C13.733 14.983 14.25 15.7807 14.25 16.5C14.25 17.2193 13.733 18.017 12.5776 18.6772C11.4435 19.3253 9.82666 19.75 8 19.75C6.17334 19.75 4.55649 19.3253 3.42236 18.6772C2.26701 18.017 1.75 17.2193 1.75 16.5Z" fill="#700B97"/>
</svg>
