<svg width="64" height="65" viewBox="0 0 64 65" fill="none" xmlns="http://www.w3.org/2000/svg">
<path opacity="0.5" d="M26.7682 14.6768L28.4989 17.7779C30.0608 20.5765 29.4338 24.2479 26.9739 26.7078C26.9739 26.7078 26.9739 26.7078 26.9739 26.7078C26.9737 26.7079 23.9901 29.6918 29.4 35.1016C34.8092 40.5108 37.793 37.5286 37.7938 37.5278C37.7939 37.5277 37.7938 37.5278 37.7939 37.5277C40.2538 35.0678 43.9251 34.4409 46.7237 36.0027L49.8248 37.7334C54.0508 40.0919 54.5499 46.0183 50.8354 49.7328C48.6033 51.9649 45.869 53.7016 42.8464 53.8162C37.758 54.0091 29.1167 52.7213 20.4485 44.0531C11.7803 35.3849 10.4925 26.7436 10.6854 21.6552C10.8 18.6326 12.5368 15.8983 14.7688 13.6663C18.4833 9.95174 24.4098 10.4508 26.7682 14.6768Z" fill="#AA205E"/>
<path d="M35.3573 5.51353C35.5339 4.42316 36.5646 3.6835 37.655 3.86002C37.7225 3.87294 37.9396 3.91353 38.0534 3.93887C38.281 3.98955 38.5984 4.06757 38.9941 4.18284C39.7855 4.41335 40.8912 4.7931 42.2181 5.40146C44.8749 6.61947 48.4104 8.75015 52.0792 12.4189C55.748 16.0877 57.8787 19.6232 59.0967 22.28C59.705 23.607 60.0848 24.7126 60.3153 25.504C60.4306 25.8997 60.5086 26.2171 60.5593 26.4447C60.5846 26.5585 60.6031 26.6498 60.616 26.7173L60.6314 26.8005C60.8079 27.8909 60.075 28.9643 58.9846 29.1408C57.8973 29.3168 56.8731 28.5807 56.6922 27.4955C56.6866 27.4663 56.6713 27.388 56.6549 27.3142C56.622 27.1665 56.5651 26.9323 56.4749 26.6226C56.2944 26.003 55.981 25.0821 55.4606 23.947C54.421 21.6795 52.5517 18.5483 49.2507 15.2474C45.9498 11.9464 42.8186 10.0771 40.5511 9.03754C39.416 8.51713 38.4951 8.20371 37.8755 8.02325C37.5658 7.93303 37.1765 7.84366 37.0288 7.81077C35.9435 7.62991 35.1813 6.60079 35.3573 5.51353Z" fill="#AA205E"/>
<path fill-rule="evenodd" clip-rule="evenodd" d="M35.9607 14.7121C36.2641 13.65 37.3711 13.0351 38.4332 13.3385L37.8837 15.2615C38.4332 13.3385 38.4332 13.3385 38.4332 13.3385L38.437 13.3396L38.4411 13.3408L38.45 13.3434L38.4706 13.3496L38.5234 13.366C38.5636 13.3788 38.6138 13.3956 38.6737 13.4168C38.7935 13.4593 38.9517 13.5198 39.1459 13.603C39.5344 13.7695 40.0652 14.0266 40.7173 14.4125C42.0225 15.185 43.8043 16.4681 45.8976 18.5614C47.9908 20.6546 49.274 22.4365 50.0465 23.7417C50.4324 24.3937 50.6895 24.9246 50.856 25.3131C50.9392 25.5072 50.9996 25.6655 51.0421 25.7853C51.0634 25.8451 51.0801 25.8954 51.093 25.9356L51.1094 25.9883L51.1156 26.009L51.1182 26.0179L51.1194 26.022C51.1194 26.022 51.1205 26.0258 49.1974 26.5753L51.1205 26.0258C51.4239 27.0879 50.8089 28.1949 49.7469 28.4983C48.6938 28.7992 47.5966 28.1971 47.2823 27.1517L47.2724 27.1229C47.2582 27.0828 47.2288 27.004 47.1794 26.8887C47.0807 26.6585 46.9018 26.2819 46.6042 25.779C46.0096 24.7743 44.9357 23.2563 43.0692 21.3898C41.2026 19.5233 39.6846 18.4494 38.68 17.8548C38.1771 17.5572 37.8004 17.3782 37.5702 17.2796C37.455 17.2302 37.3761 17.2008 37.3361 17.1865L37.3073 17.1767C36.2618 16.8624 35.6598 15.7652 35.9607 14.7121Z" fill="#AA205E"/>
</svg>
