<svg width="18" height="17" viewBox="0 0 18 17" fill="none" xmlns="http://www.w3.org/2000/svg">
<path d="M1.65273 2.23395C1.50049 2.60149 1.50049 3.06746 1.50049 3.99932C1.50049 4.93097 1.50049 5.39713 1.65271 5.76463C1.8557 6.25469 2.24509 6.64408 2.73515 6.84706C3.10269 6.9993 3.56863 6.9993 4.50051 6.9993C5.43187 6.9993 5.89841 6.99931 6.26585 6.84711C6.7559 6.64412 7.14529 6.25473 7.34828 5.76467C7.50052 5.39713 7.50052 4.93119 7.50052 3.9993C7.50052 3.06742 7.49983 2.60216 7.34759 2.23462C7.1446 1.74456 6.75521 1.35518 6.26516 1.15219C5.89762 0.999946 5.4324 0.999299 4.50051 0.999299C3.56864 0.999301 3.10269 0.9993 2.73515 1.15154C2.24509 1.35453 1.85572 1.7439 1.65273 2.23395Z" stroke="#222222" stroke-width="1.5" stroke-linecap="round" stroke-linejoin="round"/>
<path d="M1.65239 11.234C1.50015 11.6016 1.50015 12.0675 1.50015 12.9994C1.50015 13.931 1.50015 14.3972 1.65237 14.7647C1.85536 15.2548 2.24475 15.6442 2.7348 15.8471C3.10234 15.9994 3.56829 15.9994 4.50017 15.9994C5.43152 15.9994 5.89807 15.9994 6.2655 15.8472C6.75556 15.6442 7.14495 15.2548 7.34793 14.7647C7.50017 14.3972 7.50018 13.9313 7.50017 12.9994C7.50018 12.0675 7.49949 11.6022 7.34725 11.2347C7.14426 10.7446 6.75487 10.3552 6.26481 10.1523C5.89727 10 5.43205 9.99937 4.50017 9.99937C3.56829 9.99937 3.10234 9.99937 2.7348 10.1516C2.24475 10.3546 1.85538 10.744 1.65239 11.234Z" stroke="#222222" stroke-width="1.5" stroke-linecap="round" stroke-linejoin="round"/>
<path d="M10.5006 3.99898C10.5006 4.93061 10.5006 5.39679 10.6528 5.76428C10.8558 6.25434 11.2452 6.64373 11.7352 6.84672C12.1028 6.99896 12.5687 6.99896 13.5006 6.99896C14.4319 6.99896 14.8985 6.99896 15.2659 6.84676C15.756 6.64377 16.1454 6.25438 16.3484 5.76433C16.5006 5.39678 16.5006 4.93084 16.5006 3.99896C16.5006 3.06709 16.4999 2.60181 16.3477 2.23427C16.1447 1.74422 15.7553 1.35483 15.2652 1.15184C14.8977 0.9996 14.4325 0.998953 13.5006 0.998954C12.5687 0.998954 12.1028 0.998954 11.7352 1.15119C11.2452 1.35418 10.8558 1.74355 10.6528 2.23361C10.5006 2.60115 10.5006 3.06711 10.5006 3.99898Z" stroke="#222222" stroke-width="1.5" stroke-linecap="round" stroke-linejoin="round"/>
<path d="M10.6528 11.234C10.5006 11.6016 10.5006 12.0675 10.5006 12.9994C10.5006 13.931 10.5006 14.3972 10.6528 14.7647C10.8558 15.2548 11.2452 15.6441 11.7352 15.8471C12.1028 15.9994 12.5687 15.9994 13.5006 15.9994C14.4319 15.9994 14.8985 15.9994 15.2659 15.8472C15.756 15.6442 16.1454 15.2548 16.3484 14.7647C16.5006 14.3972 16.5006 13.9313 16.5006 12.9994C16.5006 12.0675 16.4999 11.6022 16.3477 11.2347C16.1447 10.7446 15.7553 10.3552 15.2652 10.1523C14.8977 10 14.4325 9.99937 13.5006 9.99937C12.5687 9.99937 12.1028 9.99937 11.7352 10.1516C11.2452 10.3546 10.8558 10.744 10.6528 11.234Z" stroke="#222222" stroke-width="1.5" stroke-linecap="round" stroke-linejoin="round"/>
</svg>
