<svg width="17" height="18" viewBox="0 0 17 18" fill="none" xmlns="http://www.w3.org/2000/svg">
    <path
        d="M8.41135 13.9092C11.072 13.9092 13.2289 11.7312 13.2289 9.04444C13.2289 6.35771 11.072 4.17969 8.41135 4.17969C5.75066 4.17969 3.59375 6.35771 3.59375 9.04444C3.59375 11.7312 5.75066 13.9092 8.41135 13.9092Z"
        stroke="#700B97" stroke-width="1.11175" stroke-linecap="round" stroke-linejoin="round" />
    <path
        d="M13.7036 14.3885L13.6073 14.2912M13.6073 3.79833L13.7036 3.70104L13.6073 3.79833ZM3.11974 14.3885L3.21609 14.2912L3.11974 14.3885ZM8.41168 1.62042V1.56055V1.62042ZM8.41168 16.529V16.4691V16.529ZM1.05929 9.04478H1H1.05929ZM15.8234 9.04478H15.7641H15.8234ZM3.21609 3.79833L3.11974 3.70104L3.21609 3.79833Z"
        stroke="#700B97" stroke-width="1.48234" stroke-linecap="round" stroke-linejoin="round" />
</svg>