<svg width="19" height="16" viewBox="0 0 19 16" fill="none" xmlns="http://www.w3.org/2000/svg">
<path d="M14.7676 8.50395L14.7676 7.21602L11.1319 7.21602L11.1319 0.285557L18.9629 0.285558L18.9629 7.21602L18.9627 7.21602L18.9627 8.50395C18.9627 11.1193 18.1125 13.0613 16.4355 14.2763C15.2754 15.1168 13.8071 15.543 12.071 15.543L12.071 11.8304C13.0134 11.8304 14.7676 11.8304 14.7676 8.50395ZM1.82342 11.8304L1.82342 15.543C3.55935 15.543 5.02774 15.1168 6.1878 14.2763C7.86478 13.0613 8.71509 11.1192 8.71509 8.50395L8.71509 7.21602L8.71509 0.285557L0.884428 0.285556L0.884427 7.21602L4.52011 7.21602L4.52011 8.50395C4.52001 11.8304 2.76582 11.8304 1.82342 11.8304Z" fill="#700B97"/>
</svg>
